<svg style="position: absolute; width: 0; height: 0; overflow: hidden;" version="1.1" xmlns="http://www.w3.org/2000/svg" xmlns:xlink="http://www.w3.org/1999/xlink">
<defs>
<symbol id="icon-heart-full" viewBox="0 0 32 32">
<title>heart-full</title>
<path d="M16.042 8.345c0 0-2-4.262-6.5-4.262-4.917 0-7.5 4.167-7.5 8.333 0 6.917 14 15.5 14 15.5s13.916-8.5 13.916-15.5c0-4.25-2.666-8.333-7.416-8.333s-6.5 4.262-6.5 4.262z"></path>
</symbol>

<symbol id="medium-icon" viewBox="0 0 32 32">
    <path d="M2.846 6.887c.03-.295-.083-.586-.303-.784l-2.24-2.7v-.403h6.958l5.378 11.795 4.728-11.795h6.633v.403l-1.916 1.837c-.165.126-.247.333-.213.538v13.498c-.034.204.048.411.213.537l1.871 1.837v.403h-9.412v-.403l1.939-1.882c.19-.19.19-.246.19-.537v-10.91l-5.389 13.688h-.728l-6.275-13.688v9.174c-.052.385.076.774.347 1.052l2.521 3.058v.404h-7.148v-.404l2.521-3.058c.27-.279.39-.67.325-1.052v-10.608z"></path>
</symbol>


</defs>
</svg>
